<svg width="24" height="24" viewBox="0 0 24 24" fill="none" xmlns="http://www.w3.org/2000/svg">
<path d="M16.7972 16.5134L16.7973 16.5136L16.8064 16.5045C16.8756 16.4353 17.0099 16.3585 17.1879 16.3174C17.3511 16.2797 17.5076 16.2823 17.6263 16.3152C18.2198 16.6014 19.038 16.7602 19.7009 16.8889C19.7927 16.9067 19.8815 16.924 19.9664 16.9409C20.319 17.0274 20.7719 17.0656 21.2245 17.0845C21.6877 17.1038 22.1868 17.1038 22.6361 17.1038H22.6415C23.1201 17.1038 23.5 17.4837 23.5 17.9623V22.6415C23.5 23.0442 23.2015 23.5 22.6415 23.5C16.7379 23.5 11.1288 21.1387 6.99506 17.0049C2.86135 12.8712 0.5 7.26211 0.5 1.35849C0.5 0.798506 0.955772 0.5 1.35849 0.5H6.03774C6.51631 0.5 6.89623 0.879916 6.89623 1.35849L6.89623 1.38611C6.8962 2.12444 6.89616 3.219 7.05688 4.02259L7.05921 4.03425L7.0621 4.0458C7.09616 4.18205 7.13052 4.33568 7.16866 4.50625L7.17479 4.53367C7.21482 4.71261 7.25851 4.90692 7.30738 5.1024C7.40018 5.47359 7.51847 5.8783 7.68489 6.22299C7.71799 6.34234 7.7026 6.44447 7.67426 6.49642C7.66212 6.51868 7.64567 6.53706 7.6162 6.55297C7.5844 6.57014 7.51831 6.59434 7.39623 6.59434H7.18157L7.03373 6.74996L4.1658 9.76883L3.92424 10.0231L4.08109 10.3368C5.16806 12.5107 6.56334 14.2138 7.94833 15.5988C9.48618 17.1367 11.0383 18.38 13.2104 19.4661L13.5241 19.6229L13.7783 19.3814L16.7972 16.5134Z" stroke="#B68C2D"/>
</svg>
